<?xml version="1.0" encoding="UTF-8" standalone="no"?><!DOCTYPE svg PUBLIC "-//W3C//DTD SVG 1.1//EN" "http://www.w3.org/Graphics/SVG/1.1/DTD/svg11.dtd"><svg width="100%" height="100%" viewBox="0 0 1000 1000" version="1.1" xmlns="http://www.w3.org/2000/svg" xmlns:xlink="http://www.w3.org/1999/xlink" xml:space="preserve" xmlns:serif="http://www.serif.com/" style="fill-rule:evenodd;clip-rule:evenodd;stroke-linejoin:round;stroke-miterlimit:2;"><path d="M111.604,715.12l0,-318.694l120.383,0l0,60.396l-10.385,-14.394l12.751,0c11.103,-18.948 26.429,-33.254 45.978,-42.918c19.549,-9.664 39.382,-14.496 59.5,-14.496c33.926,0 61.151,10.623 81.677,31.868c20.526,21.245 30.789,49.054 30.789,83.426l0,214.811l-125.679,0l0,-182.89c0,-15.215 -3.796,-26.943 -11.387,-35.183c-7.588,-8.244 -18.339,-12.366 -32.253,-12.366c-13.535,0 -24.535,4.772 -33,14.317c-8.462,9.545 -12.693,21.889 -12.693,37.034l0,179.088l-125.679,0Z" style="fill-rule:nonzero;"/><path d="M741.489,726.531c-20.905,0 -39.512,-4.087 -55.823,-12.26c-16.311,-8.173 -30.429,-19.371 -42.354,-33.593l-30.123,0l27.757,-28.268l0,62.709l-120.383,0l0,-441.65l125.679,0l0,150.044l2.361,0c11.241,-12.064 25.205,-21.496 41.891,-28.297c16.69,-6.801 34.544,-10.202 53.563,-10.202c42.767,0 77.515,15.215 104.244,45.645c26.729,30.43 40.094,71.568 40.094,123.414c0,50.786 -13.733,92.226 -41.198,124.32c-27.465,32.091 -62.701,48.137 -105.709,48.137Zm-35.752,-102.495c17.805,0 32.48,-6.34 44.026,-19.021c11.55,-12.68 17.324,-29.103 17.324,-49.269c0,-20.166 -5.792,-36.579 -17.377,-49.24c-11.582,-12.664 -26.239,-18.996 -43.973,-18.996c-17.734,0 -32.409,6.281 -44.026,18.842c-11.617,12.558 -17.425,29.049 -17.425,49.472c0,20.114 5.791,36.512 17.372,49.192c11.585,12.68 26.278,19.021 44.079,19.021Z" style="fill-rule:nonzero;"/></svg>