<?xml version="1.0" encoding="UTF-8" standalone="no"?><!DOCTYPE svg PUBLIC "-//W3C//DTD SVG 1.1//EN" "http://www.w3.org/Graphics/SVG/1.1/DTD/svg11.dtd"><svg width="100%" height="100%" viewBox="0 0 1077 1077" version="1.1" xmlns="http://www.w3.org/2000/svg" xmlns:xlink="http://www.w3.org/1999/xlink" xml:space="preserve" xmlns:serif="http://www.serif.com/" style="fill-rule:evenodd;clip-rule:evenodd;stroke-linejoin:round;stroke-miterlimit:1.5;"><path d="M953.736,155.342l66.767,677.196l-897.839,88.52l-66.767,-677.196l897.839,-88.52Z" style="fill:#fff;"/><path d="M332.638,667.68c0,0 438.138,-66.187 566.326,-72.084" style="fill:none;stroke:#90db12;stroke-width:316.27px;"/><path d="M201.771,730.654l0,-284.179l95.034,0l0,53.124l-8.914,-11.947l10.934,0c9.558,-16.423 23.039,-29.046 40.441,-37.869c17.402,-8.823 35.17,-13.235 53.305,-13.235c30.881,0 55.482,9.528 73.803,28.585c18.321,19.056 27.482,44.331 27.482,75.824l0,189.697l-99.26,0l0,-165.433c0,-15.808 -3.892,-27.908 -11.675,-36.301c-7.781,-8.395 -18.962,-12.593 -33.543,-12.593c-14.093,0 -25.675,5.177 -34.745,15.531c-9.067,10.354 -13.601,23.375 -13.601,39.062l0,159.734l-99.26,0Z" style="fill-rule:nonzero;"/><path d="M742.648,740.58c-18.993,0 -36.088,-3.86 -51.284,-11.58c-15.196,-7.72 -27.941,-18.136 -38.235,-31.247l-24.078,0l22.058,-22.98l0,55.881l-95.034,0l0,-394.835l99.26,0l0,138.413l2.025,0c9.803,-11.641 22.362,-20.831 37.679,-27.572c15.32,-6.741 31.803,-10.111 49.449,-10.111c38.234,0 69.482,13.648 93.746,40.945c24.264,27.297 36.395,63.861 36.395,109.694c0,45.035 -12.377,81.859 -37.132,110.474c-24.755,28.612 -56.371,42.918 -94.849,42.918Zm-26.56,-81.799c17.951,0 32.838,-6.556 44.663,-19.667c11.827,-13.111 17.741,-30.022 17.741,-50.733c0,-20.711 -5.944,-37.56 -17.831,-50.548c-11.885,-12.991 -26.742,-19.486 -44.572,-19.486c-17.83,0 -32.719,6.449 -44.667,19.348c-11.948,12.896 -17.922,29.791 -17.922,50.686c0,20.711 5.942,37.622 17.827,50.733c11.888,13.111 26.808,19.667 44.762,19.667Z" style="fill-rule:nonzero;"/></svg>