<?xml version="1.0" encoding="UTF-8" standalone="no"?><!DOCTYPE svg PUBLIC "-//W3C//DTD SVG 1.1//EN" "http://www.w3.org/Graphics/SVG/1.1/DTD/svg11.dtd"><svg width="100%" height="100%" viewBox="0 0 1077 1077" version="1.1" xmlns="http://www.w3.org/2000/svg" xmlns:xlink="http://www.w3.org/1999/xlink" xml:space="preserve" xmlns:serif="http://www.serif.com/" style="fill-rule:evenodd;clip-rule:evenodd;stroke-linejoin:round;stroke-miterlimit:2;"><rect x="99.149" y="99.149" width="878.101" height="878.101" style="fill:#fff;"/><path d="M217.924,721.414l0,-270.535l90.471,0l0,50.573l-8.486,-11.373l10.409,0c9.099,-15.634 21.932,-27.651 38.499,-36.051c16.567,-8.4 33.482,-12.599 50.746,-12.599c29.398,0 52.818,9.071 70.26,27.212c17.442,18.142 26.162,42.203 26.162,72.183l0,180.589l-94.494,0l0,-157.491c0,-15.049 -3.705,-26.568 -11.115,-34.558c-7.407,-7.992 -18.051,-11.988 -31.933,-11.988c-13.417,0 -24.442,4.928 -33.077,14.785c-8.632,9.857 -12.948,22.252 -12.948,37.187l0,152.065l-94.494,0Z" style="fill-rule:nonzero;"/><path d="M732.832,730.864c-18.081,0 -34.355,-3.675 -48.822,-11.024c-14.467,-7.35 -26.6,-17.265 -36.399,-29.747l-22.922,0l20.999,-21.876l0,53.198l-90.471,0l0,-375.878l94.494,0l0,131.767l1.928,0c9.332,-11.082 21.289,-19.831 35.87,-26.248c14.584,-6.417 30.276,-9.626 47.075,-9.626c36.398,0 66.146,12.993 89.245,38.979c23.099,25.986 34.648,60.795 34.648,104.428c0,42.872 -11.783,77.929 -35.349,105.17c-23.566,27.238 -53.664,40.857 -90.295,40.857Zm-25.285,-77.872c17.089,0 31.262,-6.241 42.518,-18.723c11.259,-12.482 16.889,-28.581 16.889,-48.297c0,-19.716 -5.658,-35.757 -16.975,-48.121c-11.314,-12.367 -25.458,-18.55 -42.432,-18.55c-16.974,0 -31.148,6.14 -42.522,18.419c-11.374,12.277 -17.061,28.361 -17.061,48.252c0,19.716 5.657,35.815 16.971,48.297c11.317,12.482 25.521,18.723 42.613,18.723Z" style="fill-rule:nonzero;"/></svg>